<svg xmlns="http://www.w3.org/2000/svg" xmlns:xlink="http://www.w3.org/1999/xlink" width="500" zoomAndPan="magnify" viewBox="0 0 375 374.999991" height="500" preserveAspectRatio="xMidYMid meet" version="1.0"><defs><g/></defs><g fill="#ffffff" fill-opacity="1"><g transform="translate(80.526034, 191.814026)"><g><path d="M 42.375 -31.734375 C 41.570312 -30.242188 40.4375 -29.140625 38.96875 -28.421875 C 37.507812 -27.703125 35.90625 -27.28125 34.15625 -27.15625 C 32.414062 -27.03125 30.660156 -27.0625 28.890625 -27.25 C 27.117188 -27.4375 25.515625 -27.65625 24.078125 -27.90625 C 23.640625 -28.03125 23.21875 -28.125 22.8125 -28.1875 C 22.414062 -28.25 22 -28.3125 21.5625 -28.375 C 21.6875 -27.8125 21.8125 -27.25 21.9375 -26.6875 C 22.0625 -26.132812 22.15625 -25.609375 22.21875 -25.109375 C 22.65625 -22.804688 23.070312 -20.503906 23.46875 -18.203125 C 23.875 -15.898438 24.203125 -13.597656 24.453125 -11.296875 C 24.578125 -10.171875 24.609375 -9.03125 24.546875 -7.875 C 24.484375 -6.726562 24.296875 -5.628906 23.984375 -4.578125 C 23.546875 -3.015625 22.613281 -1.582031 21.1875 -0.28125 C 20.6875 0.15625 20.015625 0.515625 19.171875 0.796875 C 18.335938 1.078125 17.640625 0.875 17.078125 0.1875 C 16.578125 -0.5 16.28125 -1.257812 16.1875 -2.09375 C 16.101562 -2.9375 16 -3.765625 15.875 -4.578125 C 15.8125 -5.128906 15.734375 -5.703125 15.640625 -6.296875 C 15.546875 -6.890625 15.46875 -7.5 15.40625 -8.125 C 14.96875 -9.613281 14.59375 -11.195312 14.28125 -12.875 C 14.34375 -12.382812 14.40625 -11.90625 14.46875 -11.4375 C 14.53125 -10.96875 14.59375 -10.484375 14.65625 -9.984375 C 14.78125 -9.179688 14.890625 -8.375 14.984375 -7.5625 C 15.078125 -6.75 15.1875 -5.941406 15.3125 -5.140625 C 15.375 -4.515625 15.453125 -3.875 15.546875 -3.21875 C 15.640625 -2.5625 15.59375 -1.957031 15.40625 -1.40625 C 15.40625 -1.34375 15.375 -1.34375 15.3125 -1.40625 C 14.9375 -1.957031 14.71875 -2.625 14.65625 -3.40625 C 14.59375 -4.1875 14.5 -4.882812 14.375 -5.5 L 13.53125 -10.359375 C 13.28125 -11.972656 13.03125 -13.570312 12.78125 -15.15625 C 12.539062 -16.75 12.296875 -18.351562 12.046875 -19.96875 C 11.734375 -21.90625 11.4375 -23.835938 11.15625 -25.765625 C 10.875 -27.691406 10.578125 -29.617188 10.265625 -31.546875 C 7.273438 -32.734375 4.414062 -34.039062 1.6875 -35.46875 C 1.625 -35.53125 1.625 -35.59375 1.6875 -35.65625 C 1.75 -35.71875 1.804688 -35.71875 1.859375 -35.65625 C 3.234375 -35.03125 4.617188 -34.421875 6.015625 -33.828125 C 7.421875 -33.242188 8.804688 -32.703125 10.171875 -32.203125 C 10.109375 -32.515625 10.046875 -32.796875 9.984375 -33.046875 C 9.921875 -33.296875 9.859375 -33.546875 9.796875 -33.796875 C 8.742188 -34.222656 7.703125 -34.671875 6.671875 -35.140625 C 5.648438 -35.609375 4.609375 -36.0625 3.546875 -36.5 C 2.546875 -37 1.921875 -37.835938 1.671875 -39.015625 C 1.429688 -40.203125 1.554688 -41.226562 2.046875 -42.09375 C 2.484375 -42.78125 3.164062 -43.34375 4.09375 -43.78125 C 5.03125 -44.21875 5.90625 -44.28125 6.71875 -43.96875 L 7.28125 -43.6875 C 6.71875 -45.738281 6.125 -47.789062 5.5 -49.84375 C 4.882812 -51.894531 4.234375 -53.914062 3.546875 -55.90625 C 3.296875 -56.71875 3.390625 -57.453125 3.828125 -58.109375 C 4.265625 -58.765625 4.820312 -59.210938 5.5 -59.453125 C 5.4375 -59.890625 5.515625 -60.265625 5.734375 -60.578125 C 5.953125 -60.890625 6.1875 -61.171875 6.4375 -61.421875 C 8 -62.472656 9.695312 -62.828125 11.53125 -62.484375 C 13.363281 -62.148438 15.023438 -61.609375 16.515625 -60.859375 C 18.078125 -60.046875 19.585938 -59.1875 21.046875 -58.28125 C 22.515625 -57.382812 23.960938 -56.472656 25.390625 -55.546875 C 28.316406 -53.609375 31.160156 -51.535156 33.921875 -49.328125 C 36.691406 -47.117188 39.414062 -44.832031 42.09375 -42.46875 C 42.84375 -41.84375 43.15625 -41.128906 43.03125 -40.328125 C 43.59375 -39.390625 43.96875 -38.457031 44.15625 -37.53125 C 44.34375 -36.21875 44.265625 -35.09375 43.921875 -34.15625 C 43.578125 -33.226562 43.0625 -32.421875 42.375 -31.734375 Z M 31.171875 -41.71875 C 29.804688 -42.53125 28.453125 -43.320312 27.109375 -44.09375 C 25.773438 -44.875 24.425781 -45.640625 23.0625 -46.390625 C 22.0625 -46.890625 21.03125 -47.398438 19.96875 -47.921875 C 18.914062 -48.453125 17.859375 -48.9375 16.796875 -49.375 C 17.296875 -47.632812 17.765625 -45.859375 18.203125 -44.046875 C 18.640625 -42.242188 19.046875 -40.441406 19.421875 -38.640625 C 21.472656 -37.960938 23.460938 -37.40625 25.390625 -36.96875 C 26.941406 -36.65625 28.507812 -36.421875 30.09375 -36.265625 C 31.6875 -36.109375 33.257812 -36.09375 34.8125 -36.21875 C 35.125 -36.21875 35.453125 -36.234375 35.796875 -36.265625 C 36.140625 -36.296875 36.4375 -36.34375 36.6875 -36.40625 L 37.4375 -36.59375 C 37.3125 -36.84375 37.1875 -37.03125 37.0625 -37.15625 C 36.4375 -38.144531 35.5625 -39 34.4375 -39.71875 C 33.320312 -40.4375 32.234375 -41.101562 31.171875 -41.71875 Z M 26.328125 -29.21875 C 25.515625 -29.34375 24.671875 -29.484375 23.796875 -29.640625 C 22.929688 -29.796875 22.0625 -29.96875 21.1875 -30.15625 C 21.25 -30.03125 21.28125 -29.90625 21.28125 -29.78125 C 21.28125 -29.65625 21.3125 -29.53125 21.375 -29.40625 C 21.5625 -29.34375 21.734375 -29.296875 21.890625 -29.265625 C 22.046875 -29.234375 22.21875 -29.21875 22.40625 -29.21875 C 24.207031 -28.96875 26.054688 -28.734375 27.953125 -28.515625 C 29.847656 -28.296875 31.703125 -28.28125 33.515625 -28.46875 L 37.0625 -29.03125 C 37.0625 -29.09375 36.734375 -29.09375 36.078125 -29.03125 C 35.421875 -28.96875 35.09375 -28.96875 35.09375 -29.03125 C 33.539062 -28.84375 31.984375 -28.78125 30.421875 -28.84375 C 28.867188 -28.90625 27.503906 -29.03125 26.328125 -29.21875 Z M 21.65625 -12.78125 C 21.78125 -11.226562 21.828125 -9.640625 21.796875 -8.015625 C 21.765625 -6.398438 21.375 -4.878906 20.625 -3.453125 L 20.8125 -3.171875 C 21.1875 -3.359375 21.5 -3.578125 21.75 -3.828125 C 22.4375 -5.253906 22.734375 -6.742188 22.640625 -8.296875 C 22.546875 -9.859375 22.34375 -11.414062 22.03125 -12.96875 L 21.46875 -15.875 C 21.40625 -15.8125 21.40625 -15.59375 21.46875 -15.21875 C 21.53125 -14.84375 21.53125 -14.65625 21.46875 -14.65625 Z M 21.65625 -12.78125 "/></g></g></g><g fill="#ffffff" fill-opacity="1"><g transform="translate(115.900927, 191.814026)"><g><path d="M 2.140625 -49.28125 C 5.253906 -50.90625 8.488281 -52.273438 11.84375 -53.390625 C 15.207031 -54.515625 18.570312 -55.507812 21.9375 -56.375 L 24.078125 -56.9375 C 26.003906 -57.3125 27.929688 -57.671875 29.859375 -58.015625 C 31.796875 -58.359375 33.757812 -58.59375 35.75 -58.71875 C 36.1875 -58.78125 36.609375 -58.8125 37.015625 -58.8125 C 37.421875 -58.8125 37.835938 -58.8125 38.265625 -58.8125 C 36.460938 -58.375 34.628906 -57.921875 32.765625 -57.453125 C 30.898438 -56.984375 29.0625 -56.53125 27.25 -56.09375 C 24.082031 -55.414062 20.925781 -54.6875 17.78125 -53.90625 C 14.632812 -53.125 11.507812 -52.207031 8.40625 -51.15625 C 7.34375 -50.84375 6.296875 -50.484375 5.265625 -50.078125 C 4.242188 -49.671875 3.203125 -49.21875 2.140625 -48.71875 C 1.898438 -48.84375 1.898438 -49.03125 2.140625 -49.28125 Z M 54.515625 -11.296875 C 54.390625 -10.734375 54.078125 -10.421875 53.578125 -10.359375 C 50.160156 -9.734375 46.722656 -8.96875 43.265625 -8.0625 C 39.804688 -7.164062 36.429688 -6.128906 33.140625 -4.953125 C 31.578125 -4.390625 30.003906 -3.828125 28.421875 -3.265625 C 26.835938 -2.703125 25.265625 -2.082031 23.703125 -1.40625 L 23.609375 -1.40625 C 23.546875 -1.34375 23.453125 -1.296875 23.328125 -1.265625 C 23.210938 -1.234375 23.09375 -1.1875 22.96875 -1.125 C 22.46875 -0.875 21.953125 -0.65625 21.421875 -0.46875 C 20.890625 -0.28125 20.375 -0.0625 19.875 0.1875 L 19.78125 0.28125 C 19.414062 0.53125 18.71875 0.84375 17.6875 1.21875 C 16.664062 1.59375 15.703125 1.898438 14.796875 2.140625 C 13.890625 2.390625 13.4375 2.515625 13.4375 2.515625 C 13.4375 2.515625 13.328125 2.53125 13.109375 2.5625 C 12.890625 2.59375 12.691406 2.609375 12.515625 2.609375 C 11.765625 2.734375 11.015625 2.734375 10.265625 2.609375 C 9.515625 2.484375 8.957031 2.019531 8.59375 1.21875 C 8.40625 0.84375 8.375 0.40625 8.5 -0.09375 C 7.3125 -0.59375 6.390625 -1.445312 5.734375 -2.65625 C 5.085938 -3.875 4.976562 -5.070312 5.40625 -6.25 C 5.164062 -7.875 4.96875 -9.507812 4.8125 -11.15625 C 4.65625 -12.800781 4.515625 -14.4375 4.390625 -16.0625 L 3.265625 -27.25 L 2.140625 -37.890625 C 0.960938 -39.203125 0.46875 -40.726562 0.65625 -42.46875 C 0.84375 -44.207031 1.617188 -45.671875 2.984375 -46.859375 C 3.046875 -46.984375 3.109375 -47.109375 3.171875 -47.234375 C 3.234375 -47.359375 3.296875 -47.484375 3.359375 -47.609375 C 4.359375 -48.046875 5.351562 -48.445312 6.34375 -48.8125 C 7.34375 -49.1875 8.335938 -49.53125 9.328125 -49.84375 C 12.441406 -50.90625 15.566406 -51.820312 18.703125 -52.59375 C 21.847656 -53.375 25.007812 -54.078125 28.1875 -54.703125 C 30.675781 -55.265625 33.132812 -55.867188 35.5625 -56.515625 C 37.988281 -57.171875 40.414062 -57.8125 42.84375 -58.4375 C 43.15625 -58.375 43.484375 -58.328125 43.828125 -58.296875 C 44.171875 -58.265625 44.46875 -58.1875 44.71875 -58.0625 L 46.203125 -57.5 C 46.453125 -57.3125 46.703125 -57.109375 46.953125 -56.890625 C 47.203125 -56.671875 47.453125 -56.46875 47.703125 -56.28125 C 48.015625 -55.289062 48.226562 -54.3125 48.34375 -53.34375 C 48.46875 -52.382812 48.441406 -51.4375 48.265625 -50.5 L 43.59375 -49.09375 C 42.59375 -48.78125 41.546875 -48.46875 40.453125 -48.15625 C 39.367188 -47.851562 38.300781 -47.546875 37.25 -47.234375 C 37 -47.109375 36.8125 -47.046875 36.6875 -47.046875 C 35.5 -46.734375 34.113281 -46.34375 32.53125 -45.875 C 30.945312 -45.40625 29.359375 -44.9375 27.765625 -44.46875 C 26.179688 -44.007812 24.828125 -43.59375 23.703125 -43.21875 C 22.585938 -42.84375 21.90625 -42.59375 21.65625 -42.46875 C 20.164062 -41.96875 18.671875 -41.4375 17.171875 -40.875 C 15.679688 -40.320312 14.21875 -39.734375 12.78125 -39.109375 L 12.59375 -38.921875 C 12.65625 -38.609375 12.734375 -38.09375 12.828125 -37.375 C 12.921875 -36.664062 13.015625 -36 13.109375 -35.375 C 13.203125 -34.75 13.25 -34.34375 13.25 -34.15625 C 15.863281 -35.28125 18.460938 -36.382812 21.046875 -37.46875 C 23.628906 -38.5625 26.257812 -39.609375 28.9375 -40.609375 C 30.425781 -40.984375 31.929688 -41.367188 33.453125 -41.765625 C 34.984375 -42.171875 36.492188 -42.59375 37.984375 -43.03125 L 39.203125 -43.3125 C 39.765625 -43.4375 40.304688 -43.515625 40.828125 -43.546875 C 41.359375 -43.578125 41.90625 -43.625 42.46875 -43.6875 C 43.65625 -43.75 44.773438 -43.671875 45.828125 -43.453125 C 46.890625 -43.234375 47.734375 -42.5625 48.359375 -41.4375 C 48.472656 -41.320312 48.546875 -41.203125 48.578125 -41.078125 C 48.609375 -40.953125 48.65625 -40.828125 48.71875 -40.703125 C 48.84375 -40.515625 48.9375 -40.328125 49 -40.140625 C 49.0625 -39.953125 49.125 -39.765625 49.1875 -39.578125 C 49.25 -39.515625 49.3125 -39.484375 49.375 -39.484375 C 50.25 -39.046875 50.78125 -38.269531 50.96875 -37.15625 C 51.15625 -36.28125 51.015625 -35.390625 50.546875 -34.484375 C 50.078125 -33.585938 49.40625 -32.921875 48.53125 -32.484375 C 47.539062 -32.046875 46.53125 -31.78125 45.5 -31.6875 C 44.476562 -31.59375 43.4375 -31.421875 42.375 -31.171875 C 41.257812 -30.984375 40.125 -30.78125 38.96875 -30.5625 C 37.820312 -30.351562 36.6875 -30.09375 35.5625 -29.78125 C 33.320312 -29.15625 31.097656 -28.484375 28.890625 -27.765625 C 26.679688 -27.054688 24.488281 -26.234375 22.3125 -25.296875 C 20.9375 -24.734375 19.609375 -24.140625 18.328125 -23.515625 C 17.054688 -22.898438 15.769531 -22.25 14.46875 -21.5625 L 15.03125 -15.5 C 15.03125 -15.4375 15.03125 -15.390625 15.03125 -15.359375 C 15.03125 -15.328125 15.03125 -15.25 15.03125 -15.125 L 15.3125 -15.3125 C 16.363281 -15.8125 17.398438 -16.257812 18.421875 -16.65625 C 19.453125 -17.0625 20.46875 -17.484375 21.46875 -17.921875 L 29.40625 -21 C 30.09375 -21.3125 30.789062 -21.59375 31.5 -21.84375 C 32.21875 -22.09375 32.921875 -22.34375 33.609375 -22.59375 C 34.722656 -23.03125 35.835938 -23.445312 36.953125 -23.84375 C 38.078125 -24.25 39.203125 -24.640625 40.328125 -25.015625 L 43.96875 -26.140625 C 44.46875 -26.265625 44.960938 -26.429688 45.453125 -26.640625 C 45.953125 -26.859375 46.453125 -27.03125 46.953125 -27.15625 C 48.753906 -27.53125 50.226562 -27.375 51.375 -26.6875 C 52.53125 -26.007812 53.453125 -25.015625 54.140625 -23.703125 C 54.828125 -22.398438 55.335938 -20.96875 55.671875 -19.40625 C 56.015625 -17.851562 56.21875 -16.425781 56.28125 -15.125 C 56.34375 -14.3125 56.203125 -13.578125 55.859375 -12.921875 C 55.523438 -12.273438 55.078125 -11.734375 54.515625 -11.296875 Z M 31.921875 -31.078125 C 30.492188 -30.648438 29.046875 -30.21875 27.578125 -29.78125 C 26.117188 -29.34375 24.675781 -28.875 23.25 -28.375 C 22.3125 -28.125 21.390625 -27.859375 20.484375 -27.578125 C 19.585938 -27.296875 18.703125 -27.035156 17.828125 -26.796875 C 17.640625 -25.734375 17.140625 -24.859375 16.328125 -24.171875 C 18.628906 -25.359375 20.976562 -26.414062 23.375 -27.34375 C 25.769531 -28.28125 28.125 -29.21875 30.4375 -30.15625 C 30.925781 -30.394531 31.453125 -30.609375 32.015625 -30.796875 Z M 11.296875 1.21875 C 11.984375 1.28125 12.757812 1.296875 13.625 1.265625 C 14.5 1.234375 15 1.1875 15.125 1.125 C 15.25 1.125 15.34375 1.09375 15.40625 1.03125 C 15.78125 0.84375 16.148438 0.65625 16.515625 0.46875 C 16.890625 0.28125 17.234375 0.09375 17.546875 -0.09375 C 18.296875 -0.46875 19.023438 -0.84375 19.734375 -1.21875 C 20.453125 -1.59375 21.15625 -1.960938 21.84375 -2.328125 L 21.84375 -2.515625 C 21.03125 -2.203125 20.1875 -1.890625 19.3125 -1.578125 C 18.445312 -1.273438 17.578125 -0.96875 16.703125 -0.65625 C 15.835938 -0.34375 14.953125 -0.015625 14.046875 0.328125 C 13.140625 0.671875 12.222656 0.96875 11.296875 1.21875 Z M 11.296875 1.21875 "/></g></g></g><g fill="#ffffff" fill-opacity="1"><g transform="translate(163.410001, 191.814026)"><g><path d="M 53.765625 -8.5 C 52.890625 -6.4375 51.410156 -4.753906 49.328125 -3.453125 C 47.242188 -2.148438 45.144531 -1.25 43.03125 -0.75 C 40.601562 -0.1875 38.175781 0.078125 35.75 0.046875 C 33.320312 0.015625 30.863281 -0.1875 28.375 -0.5625 C 25.945312 -0.9375 23.644531 -1.398438 21.46875 -1.953125 C 21.03125 -1.023438 20.441406 -0.46875 19.703125 -0.28125 C 19.265625 -0.21875 18.828125 -0.28125 18.390625 -0.46875 C 17.953125 -0.03125 17.453125 0.1875 16.890625 0.1875 C 16.273438 0.25 15.671875 0.21875 15.078125 0.09375 C 14.484375 -0.03125 13.9375 -0.25 13.4375 -0.5625 C 12.445312 -1.25 11.734375 -1.992188 11.296875 -2.796875 C 10.859375 -3.609375 10.515625 -4.570312 10.265625 -5.6875 C 8.773438 -6.3125 7.296875 -6.953125 5.828125 -7.609375 C 4.367188 -8.265625 2.925781 -8.960938 1.5 -9.703125 C 0.125 -10.453125 -0.75 -11.601562 -1.125 -13.15625 C -1.5 -14.71875 -1.28125 -16.148438 -0.46875 -17.453125 C 0.28125 -18.765625 1.414062 -19.617188 2.9375 -20.015625 C 4.46875 -20.421875 5.882812 -20.253906 7.1875 -19.515625 L 7.5625 -19.234375 C 7.5 -19.785156 7.40625 -20.328125 7.28125 -20.859375 C 7.15625 -21.390625 7.03125 -21.9375 6.90625 -22.5 C 5.90625 -27.726562 4.859375 -32.9375 3.765625 -38.125 C 2.679688 -43.320312 1.613281 -48.503906 0.5625 -53.671875 C 0.5 -53.859375 0.4375 -54.046875 0.375 -54.234375 C 0.3125 -54.421875 0.25 -54.578125 0.1875 -54.703125 C -0.0625 -55.628906 0.09375 -56.453125 0.65625 -57.171875 C 1.21875 -57.890625 1.898438 -58.3125 2.703125 -58.4375 C 2.953125 -58.5 3.1875 -58.546875 3.40625 -58.578125 C 3.625 -58.609375 3.828125 -58.625 4.015625 -58.625 C 4.328125 -59.425781 4.914062 -60.0625 5.78125 -60.53125 C 6.65625 -61 7.617188 -61.3125 8.671875 -61.46875 C 9.734375 -61.625 10.609375 -61.671875 11.296875 -61.609375 C 14.410156 -61.359375 17.164062 -60.359375 19.5625 -58.609375 C 21.957031 -56.867188 24.242188 -54.941406 26.421875 -52.828125 C 28.847656 -50.523438 31.257812 -48.160156 33.65625 -45.734375 C 36.050781 -43.304688 38.367188 -40.816406 40.609375 -38.265625 C 41.410156 -37.460938 42.203125 -36.609375 42.984375 -35.703125 C 43.765625 -34.796875 44.492188 -33.878906 45.171875 -32.953125 C 46.359375 -31.390625 47.492188 -29.800781 48.578125 -28.1875 C 49.671875 -26.570312 50.65625 -24.863281 51.53125 -23.0625 C 52.644531 -20.875 53.5625 -18.503906 54.28125 -15.953125 C 55 -13.410156 54.828125 -10.925781 53.765625 -8.5 Z M 3.453125 -46.859375 C 3.390625 -47.046875 3.203125 -47.34375 2.890625 -47.75 C 2.578125 -48.15625 2.484375 -48.015625 2.609375 -47.328125 C 3.421875 -44.085938 4.179688 -40.863281 4.890625 -37.65625 C 5.609375 -34.457031 6.375 -31.238281 7.1875 -28 L 9.703125 -18.015625 C 10.015625 -17.890625 10.3125 -17.734375 10.59375 -17.546875 C 10.875 -17.359375 11.140625 -17.203125 11.390625 -17.078125 C 11.140625 -17.890625 10.875 -18.679688 10.59375 -19.453125 C 10.3125 -20.234375 10.078125 -21.03125 9.890625 -21.84375 C 9.640625 -22.71875 9.296875 -24.007812 8.859375 -25.71875 C 8.429688 -27.425781 7.96875 -29.320312 7.46875 -31.40625 C 6.96875 -33.488281 6.453125 -35.554688 5.921875 -37.609375 C 5.398438 -39.671875 4.921875 -41.523438 4.484375 -43.171875 C 4.046875 -44.816406 3.703125 -46.046875 3.453125 -46.859375 Z M 43.03125 -18.390625 C 42.34375 -19.441406 41.640625 -20.515625 40.921875 -21.609375 C 40.210938 -22.703125 39.484375 -23.742188 38.734375 -24.734375 C 37.367188 -26.597656 35.890625 -28.398438 34.296875 -30.140625 C 32.710938 -31.890625 31.019531 -33.539062 29.21875 -35.09375 C 25.789062 -38.269531 21.898438 -41.101562 17.546875 -43.59375 L 15.78125 -44.53125 C 16.582031 -40.664062 17.34375 -36.769531 18.0625 -32.84375 C 18.78125 -28.925781 19.445312 -25.039062 20.0625 -21.1875 C 20.3125 -19.820312 20.5625 -18.4375 20.8125 -17.03125 C 21.0625 -15.632812 21.3125 -14.21875 21.5625 -12.78125 C 22.988281 -12.289062 24.445312 -11.8125 25.9375 -11.34375 C 27.4375 -10.875 28.960938 -10.484375 30.515625 -10.171875 C 31.765625 -9.921875 32.789062 -9.734375 33.59375 -9.609375 C 34.40625 -9.484375 35.40625 -9.390625 36.59375 -9.328125 C 37.707031 -9.328125 38.671875 -9.359375 39.484375 -9.421875 C 40.296875 -9.484375 41.195312 -9.640625 42.1875 -9.890625 C 43 -10.078125 43.726562 -10.3125 44.375 -10.59375 C 45.03125 -10.875 45.609375 -11.234375 46.109375 -11.671875 C 46.046875 -12.285156 45.890625 -12.859375 45.640625 -13.390625 C 45.390625 -13.921875 45.113281 -14.46875 44.8125 -15.03125 C 44.5625 -15.59375 44.28125 -16.164062 43.96875 -16.75 C 43.65625 -17.34375 43.34375 -17.890625 43.03125 -18.390625 Z M 43.03125 -18.390625 "/></g></g></g><g fill="#ffffff" fill-opacity="1"><g transform="translate(208.678911, 191.814026)"><g><path d="M 53.203125 -35.5625 L 52.921875 -33.609375 C 52.859375 -32.734375 52.453125 -31.96875 51.703125 -31.3125 C 50.960938 -30.664062 50.21875 -30.375 49.46875 -30.4375 C 47.289062 -30.550781 45.097656 -30.703125 42.890625 -30.890625 C 40.679688 -31.078125 38.488281 -31.265625 36.3125 -31.453125 C 38.863281 -27.660156 41.101562 -23.800781 43.03125 -19.875 C 44.269531 -17.207031 45.507812 -14.425781 46.75 -11.53125 C 48 -8.632812 48.441406 -5.660156 48.078125 -2.609375 C 47.953125 -1.617188 47.453125 -0.984375 46.578125 -0.703125 C 45.703125 -0.421875 44.863281 -0.4375 44.0625 -0.75 C 43.625 -0.6875 43.203125 -0.671875 42.796875 -0.703125 C 42.390625 -0.734375 41.96875 -0.84375 41.53125 -1.03125 C 41.40625 -1.03125 41.34375 -1.0625 41.34375 -1.125 C 40.976562 -0.75 40.578125 -0.65625 40.140625 -0.84375 C 39.328125 -3.019531 38.453125 -5.210938 37.515625 -7.421875 C 36.585938 -9.628906 35.65625 -11.789062 34.71875 -13.90625 C 34.40625 -14.71875 33.9375 -15.851562 33.3125 -17.3125 C 32.695312 -18.78125 32.046875 -20.304688 31.359375 -21.890625 C 30.679688 -23.472656 30.03125 -24.828125 29.40625 -25.953125 C 28.90625 -27.066406 28.40625 -28.03125 27.90625 -28.84375 L 27.90625 -28.9375 C 27.34375 -29.75 26.816406 -30.617188 26.328125 -31.546875 C 25.140625 -31.609375 23.921875 -31.671875 22.671875 -31.734375 C 21.429688 -31.796875 20.191406 -31.859375 18.953125 -31.921875 C 19.203125 -29.804688 19.414062 -27.691406 19.59375 -25.578125 C 19.78125 -23.460938 19.90625 -21.316406 19.96875 -19.140625 C 20.09375 -16.835938 20.234375 -14.519531 20.390625 -12.1875 C 20.546875 -9.851562 20.5625 -7.535156 20.4375 -5.234375 C 20.5 -4.984375 20.53125 -4.71875 20.53125 -4.4375 C 20.53125 -4.15625 20.53125 -3.890625 20.53125 -3.640625 C 19.914062 -2.453125 19.203125 -1.519531 18.390625 -0.84375 C 17.765625 -0.34375 17.046875 -0.09375 16.234375 -0.09375 C 15.429688 -0.09375 14.75 -0.40625 14.1875 -1.03125 C 13.875 -1.53125 13.6875 -2.023438 13.625 -2.515625 C 13.25 -2.453125 12.875 -2.5625 12.5 -2.84375 C 12.132812 -3.125 11.953125 -3.515625 11.953125 -4.015625 C 11.703125 -5.003906 11.59375 -6.046875 11.625 -7.140625 C 11.65625 -8.234375 11.609375 -9.273438 11.484375 -10.265625 L 10.640625 -16.421875 C 10.265625 -18.609375 9.890625 -20.804688 9.515625 -23.015625 C 9.148438 -25.222656 8.78125 -27.414062 8.40625 -29.59375 L 7.84375 -32.859375 C 7.78125 -32.859375 7.703125 -32.859375 7.609375 -32.859375 C 7.515625 -32.859375 7.40625 -32.859375 7.28125 -32.859375 C 7.28125 -33.234375 7.09375 -33.453125 6.71875 -33.515625 C 6.21875 -33.640625 5.703125 -33.789062 5.171875 -33.96875 C 4.648438 -34.15625 4.140625 -34.34375 3.640625 -34.53125 L 5.78125 -34.8125 C 4.851562 -35.1875 3.921875 -35.6875 2.984375 -36.3125 C 2.117188 -36.875 1.640625 -37.664062 1.546875 -38.6875 C 1.453125 -39.71875 1.648438 -40.632812 2.140625 -41.4375 C 2.640625 -42.25 3.359375 -42.65625 4.296875 -42.65625 C 4.609375 -42.71875 4.898438 -42.75 5.171875 -42.75 C 5.453125 -42.75 5.71875 -42.75 5.96875 -42.75 C 5.65625 -44.363281 5.328125 -45.976562 4.984375 -47.59375 C 4.648438 -49.21875 4.296875 -50.804688 3.921875 -52.359375 C 4.734375 -52.984375 5.382812 -53.671875 5.875 -54.421875 C 5.007812 -55.171875 4.375 -56.132812 3.96875 -57.3125 C 3.5625 -58.5 3.609375 -59.617188 4.109375 -60.671875 C 4.734375 -61.859375 5.664062 -62.570312 6.90625 -62.8125 C 8.15625 -63.0625 9.492188 -63.09375 10.921875 -62.90625 C 12.347656 -62.726562 13.5625 -62.546875 14.5625 -62.359375 C 14.875 -62.359375 15.15625 -62.234375 15.40625 -61.984375 C 15.71875 -61.859375 16.039062 -61.734375 16.375 -61.609375 C 16.71875 -61.484375 17.046875 -61.359375 17.359375 -61.234375 C 17.421875 -61.234375 17.46875 -61.21875 17.5 -61.1875 C 17.53125 -61.15625 17.578125 -61.140625 17.640625 -61.140625 C 22.804688 -59.523438 27.738281 -57.269531 32.4375 -54.375 C 37.132812 -51.476562 41.753906 -48.472656 46.296875 -45.359375 C 46.921875 -44.867188 47.359375 -44.1875 47.609375 -43.3125 C 48.285156 -42.875 48.9375 -42.40625 49.5625 -41.90625 C 50.1875 -41.414062 50.8125 -40.921875 51.4375 -40.421875 C 52.925781 -39.296875 53.515625 -37.675781 53.203125 -35.5625 Z M 15.3125 -49.84375 C 15.375 -49.78125 15.40625 -49.6875 15.40625 -49.5625 C 15.40625 -49.4375 15.4375 -49.3125 15.5 -49.1875 C 15.75 -49.4375 16.039062 -49.546875 16.375 -49.515625 C 16.71875 -49.484375 16.921875 -49.25 16.984375 -48.8125 C 17.234375 -47.820312 17.46875 -46.84375 17.6875 -45.875 C 17.90625 -44.914062 18.109375 -43.9375 18.296875 -42.9375 C 18.546875 -42.875 18.796875 -42.84375 19.046875 -42.84375 C 19.296875 -42.84375 19.539062 -42.8125 19.78125 -42.75 C 19.90625 -43.3125 20.1875 -43.78125 20.625 -44.15625 C 21.5625 -44.769531 22.507812 -44.953125 23.46875 -44.703125 C 24.4375 -44.460938 25.367188 -44.046875 26.265625 -43.453125 C 27.171875 -42.859375 27.96875 -42.25 28.65625 -41.625 L 37.703125 -40.515625 C 34.097656 -43.003906 30.425781 -45.195312 26.6875 -47.09375 C 22.957031 -48.988281 19.070312 -50.40625 15.03125 -51.34375 Z M 21.9375 -7.84375 C 21.75 -11.695312 21.546875 -15.566406 21.328125 -19.453125 C 21.109375 -23.347656 20.71875 -27.191406 20.15625 -30.984375 L 20.90625 -30.984375 C 21.40625 -28.304688 21.78125 -25.566406 22.03125 -22.765625 C 22.28125 -19.972656 22.53125 -17.175781 22.78125 -14.375 C 22.90625 -12.695312 22.84375 -11.46875 22.59375 -10.6875 C 22.34375 -9.90625 22.125 -8.957031 21.9375 -7.84375 Z M 21.9375 -7.84375 "/></g></g></g><g fill="#ffffff" fill-opacity="1"><g transform="translate(255.254577, 191.814026)"><g><path d="M 35.28125 -40.046875 C 35.78125 -37.179688 36.09375 -34.285156 36.21875 -31.359375 C 36.34375 -28.429688 36.25 -25.507812 35.9375 -22.59375 C 35.6875 -20.039062 35.28125 -17.410156 34.71875 -14.703125 C 34.164062 -11.992188 33.109375 -9.550781 31.546875 -7.375 C 31.046875 -6.6875 30.515625 -6.015625 29.953125 -5.359375 C 29.398438 -4.710938 28.78125 -4.109375 28.09375 -3.546875 C 27.226562 -2.671875 26.25 -1.9375 25.15625 -1.34375 C 24.0625 -0.757812 22.863281 -0.375 21.5625 -0.1875 C 20.5625 -0.125 19.535156 -0.125 18.484375 -0.1875 C 16.929688 0.0625 15.34375 -0.0625 13.71875 -0.5625 C 12.101562 -1.0625 10.671875 -1.804688 9.421875 -2.796875 C 7.242188 -4.660156 5.625 -6.914062 4.5625 -9.5625 C 3.507812 -12.207031 2.734375 -14.898438 2.234375 -17.640625 C 1.304688 -23.617188 1.304688 -29.59375 2.234375 -35.5625 C 3.171875 -41.539062 5.195312 -47.140625 8.3125 -52.359375 C 8.3125 -52.359375 8.375 -52.421875 8.5 -52.546875 C 9.425781 -55.035156 10.671875 -57.273438 12.234375 -59.265625 C 12.296875 -59.390625 12.359375 -59.4375 12.421875 -59.40625 C 12.484375 -59.375 12.484375 -59.300781 12.421875 -59.1875 C 12.171875 -58.75 11.90625 -58.296875 11.625 -57.828125 C 11.34375 -57.359375 11.109375 -56.875 10.921875 -56.375 C 10.671875 -55.882812 10.453125 -55.375 10.265625 -54.84375 C 10.078125 -54.3125 9.890625 -53.796875 9.703125 -53.296875 C 9.828125 -53.359375 9.96875 -53.375 10.125 -53.34375 C 10.28125 -53.3125 10.390625 -53.296875 10.453125 -53.296875 C 11.265625 -55.035156 12.226562 -56.554688 13.34375 -57.859375 C 14.46875 -59.171875 15.773438 -59.984375 17.265625 -60.296875 C 17.890625 -60.546875 18.492188 -60.75 19.078125 -60.90625 C 19.671875 -61.0625 20.28125 -61.109375 20.90625 -61.046875 C 21.59375 -61.171875 22.289062 -61.21875 23 -61.1875 C 23.71875 -61.15625 24.359375 -60.984375 24.921875 -60.671875 C 25.546875 -60.296875 26.085938 -59.765625 26.546875 -59.078125 C 27.015625 -58.398438 27.40625 -57.75 27.71875 -57.125 C 28.09375 -57.25 28.484375 -57.265625 28.890625 -57.171875 C 29.296875 -57.078125 29.625 -56.8125 29.875 -56.375 C 30.550781 -55.132812 31.203125 -53.859375 31.828125 -52.546875 C 32.453125 -51.242188 32.984375 -49.90625 33.421875 -48.53125 C 33.859375 -47.164062 34.210938 -45.765625 34.484375 -44.328125 C 34.765625 -42.898438 35.03125 -41.472656 35.28125 -40.046875 Z M 23.609375 -12.875 C 24.421875 -15.0625 24.984375 -17.304688 25.296875 -19.609375 C 25.609375 -21.910156 25.765625 -24.210938 25.765625 -26.515625 C 25.578125 -28.878906 25.390625 -31.226562 25.203125 -33.5625 C 25.015625 -35.894531 24.734375 -38.210938 24.359375 -40.515625 C 24.234375 -41.191406 24.109375 -41.890625 23.984375 -42.609375 C 23.859375 -43.328125 23.734375 -44 23.609375 -44.625 C 23.367188 -45.488281 23.09375 -46.328125 22.78125 -47.140625 C 22.46875 -47.953125 22.15625 -48.757812 21.84375 -49.5625 C 21.71875 -49.875 21.578125 -50.21875 21.421875 -50.59375 C 21.265625 -50.96875 21.09375 -51.3125 20.90625 -51.625 C 20.78125 -51.75 20.65625 -51.8125 20.53125 -51.8125 L 20.0625 -51.8125 C 19.820312 -51.3125 19.59375 -50.78125 19.375 -50.21875 C 19.15625 -49.65625 18.984375 -49.125 18.859375 -48.625 C 18.359375 -46.945312 17.90625 -45.253906 17.5 -43.546875 C 17.09375 -41.835938 16.765625 -40.078125 16.515625 -38.265625 C 16.085938 -34.847656 15.90625 -31.363281 15.96875 -27.8125 C 16.03125 -24.269531 16.335938 -20.753906 16.890625 -17.265625 C 17.078125 -16.210938 16.953125 -15.28125 16.515625 -14.46875 C 15.210938 -20.5625 14.703125 -26.859375 14.984375 -33.359375 C 15.265625 -39.867188 16.742188 -45.925781 19.421875 -51.53125 C 19.171875 -51.34375 18.9375 -51.078125 18.71875 -50.734375 C 18.5 -50.390625 18.296875 -50.0625 18.109375 -49.75 C 17.234375 -48.007812 16.484375 -46.203125 15.859375 -44.328125 C 15.242188 -42.460938 14.75 -40.566406 14.375 -38.640625 C 14.25 -38.390625 14.1875 -38.265625 14.1875 -38.265625 C 14 -37.210938 13.859375 -36.140625 13.765625 -35.046875 C 13.671875 -33.960938 13.5625 -32.890625 13.4375 -31.828125 C 13.3125 -28.648438 13.421875 -25.488281 13.765625 -22.34375 C 14.109375 -19.207031 14.625 -16.113281 15.3125 -13.0625 C 15 -12.8125 14.65625 -12.65625 14.28125 -12.59375 C 13.15625 -12.351562 12.066406 -12.539062 11.015625 -13.15625 C 11.515625 -12.164062 12.195312 -11.140625 13.0625 -10.078125 C 13.9375 -9.023438 14.945312 -8.234375 16.09375 -7.703125 C 17.25 -7.171875 18.476562 -7.09375 19.78125 -7.46875 C 20.84375 -7.84375 21.6875 -8.585938 22.3125 -9.703125 C 22.625 -10.203125 22.882812 -10.71875 23.09375 -11.25 C 23.3125 -11.78125 23.484375 -12.320312 23.609375 -12.875 Z M 23.609375 -12.875 "/></g></g></g><g fill="#ffffff" fill-opacity="1"><g transform="translate(109.725214, 212.933558)"><g><path d="M 0.484375 0 L 0.484375 -6.953125 L 5.4375 -6.953125 C 6.789062 -6.953125 7.828125 -6.648438 8.546875 -6.046875 C 9.273438 -5.453125 9.640625 -4.59375 9.640625 -3.46875 C 9.640625 -2.363281 9.273438 -1.507812 8.546875 -0.90625 C 7.828125 -0.300781 6.789062 0 5.4375 0 Z M 2.96875 -1.734375 L 5.0625 -1.734375 C 5.738281 -1.734375 6.253906 -1.882812 6.609375 -2.1875 C 6.972656 -2.488281 7.15625 -2.914062 7.15625 -3.46875 C 7.15625 -4.03125 6.972656 -4.460938 6.609375 -4.765625 C 6.253906 -5.078125 5.738281 -5.234375 5.0625 -5.234375 L 2.96875 -5.234375 Z M 2.96875 -1.734375 "/></g></g></g><g fill="#ffffff" fill-opacity="1"><g transform="translate(119.541752, 212.933558)"><g><path d="M 0.484375 0 L 0.484375 -6.953125 L 7.828125 -6.953125 L 7.828125 -5.375 L 2.96875 -5.375 L 2.96875 -4.21875 L 7.4375 -4.21875 L 7.4375 -2.859375 L 2.96875 -2.859375 L 2.96875 -1.578125 L 7.921875 -1.578125 L 7.921875 0 Z M 0.484375 0 "/></g></g></g><g fill="#ffffff" fill-opacity="1"><g transform="translate(127.524952, 212.933558)"><g><path d="M 4.5625 0.203125 C 4.019531 0.203125 3.46875 0.148438 2.90625 0.046875 C 2.351562 -0.046875 1.835938 -0.179688 1.359375 -0.359375 C 0.890625 -0.546875 0.5 -0.753906 0.1875 -0.984375 L 1.03125 -2.515625 C 1.3125 -2.296875 1.648438 -2.101562 2.046875 -1.9375 C 2.453125 -1.78125 2.882812 -1.648438 3.34375 -1.546875 C 3.800781 -1.453125 4.253906 -1.40625 4.703125 -1.40625 C 5.203125 -1.40625 5.59375 -1.457031 5.875 -1.5625 C 6.164062 -1.675781 6.3125 -1.828125 6.3125 -2.015625 C 6.3125 -2.160156 6.191406 -2.28125 5.953125 -2.375 C 5.722656 -2.46875 5.347656 -2.539062 4.828125 -2.59375 L 3.546875 -2.75 C 2.429688 -2.863281 1.625 -3.082031 1.125 -3.40625 C 0.625 -3.738281 0.375 -4.210938 0.375 -4.828125 C 0.382812 -5.316406 0.5625 -5.738281 0.90625 -6.09375 C 1.257812 -6.445312 1.75 -6.710938 2.375 -6.890625 C 3.007812 -7.066406 3.742188 -7.15625 4.578125 -7.15625 C 5.304688 -7.15625 5.992188 -7.078125 6.640625 -6.921875 C 7.296875 -6.765625 7.84375 -6.550781 8.28125 -6.28125 L 7.578125 -4.8125 C 7.191406 -5.0625 6.734375 -5.257812 6.203125 -5.40625 C 5.671875 -5.550781 5.132812 -5.625 4.59375 -5.625 C 4.101562 -5.613281 3.691406 -5.550781 3.359375 -5.4375 C 3.035156 -5.332031 2.875 -5.1875 2.875 -5 C 2.863281 -4.875 2.957031 -4.769531 3.15625 -4.6875 C 3.363281 -4.601562 3.695312 -4.539062 4.15625 -4.5 L 5.4375 -4.359375 C 6.613281 -4.242188 7.46875 -4.015625 8 -3.671875 C 8.53125 -3.335938 8.796875 -2.851562 8.796875 -2.21875 C 8.804688 -1.738281 8.632812 -1.316406 8.28125 -0.953125 C 7.9375 -0.585938 7.445312 -0.300781 6.8125 -0.09375 C 6.175781 0.101562 5.425781 0.203125 4.5625 0.203125 Z M 4.5625 0.203125 "/></g></g></g><g fill="#ffffff" fill-opacity="1"><g transform="translate(136.381174, 212.933558)"><g><path d="M 0.484375 0 L 0.484375 -6.953125 L 7.828125 -6.953125 L 7.828125 -5.375 L 2.96875 -5.375 L 2.96875 -4.21875 L 7.4375 -4.21875 L 7.4375 -2.859375 L 2.96875 -2.859375 L 2.96875 -1.578125 L 7.921875 -1.578125 L 7.921875 0 Z M 0.484375 0 "/></g></g></g><g fill="#ffffff" fill-opacity="1"><g transform="translate(144.364373, 212.933558)"><g><path d="M 0.484375 0 L 0.484375 -6.953125 L 3.5625 -6.953125 L 7.28125 -2.4375 L 7.296875 -2.4375 L 7.296875 -6.953125 L 9.71875 -6.953125 L 9.71875 0 L 6.640625 0 L 2.90625 -4.5625 L 2.90625 0 Z M 0.484375 0 "/></g></g></g><g fill="#ffffff" fill-opacity="1"><g transform="translate(154.423414, 212.933558)"><g><path d="M 3.4375 0 L 0 -6.953125 L 2.65625 -6.953125 L 4.875 -2.140625 L 7.109375 -6.953125 L 9.75 -6.953125 L 6.3125 0 Z M 3.4375 0 "/></g></g></g><g fill="#ffffff" fill-opacity="1"><g transform="translate(164.036244, 212.933558)"><g><path d="M 5.421875 0.25 C 4.648438 0.25 3.953125 0.160156 3.328125 -0.015625 C 2.703125 -0.203125 2.160156 -0.457031 1.703125 -0.78125 C 1.253906 -1.101562 0.910156 -1.492188 0.671875 -1.953125 C 0.429688 -2.410156 0.3125 -2.914062 0.3125 -3.46875 C 0.3125 -4.21875 0.519531 -4.867188 0.9375 -5.421875 C 1.363281 -5.984375 1.957031 -6.414062 2.71875 -6.71875 C 3.488281 -7.03125 4.390625 -7.1875 5.421875 -7.1875 C 6.441406 -7.1875 7.332031 -7.03125 8.09375 -6.71875 C 8.863281 -6.414062 9.457031 -5.984375 9.875 -5.421875 C 10.300781 -4.867188 10.515625 -4.21875 10.515625 -3.46875 C 10.515625 -2.914062 10.394531 -2.410156 10.15625 -1.953125 C 9.914062 -1.492188 9.566406 -1.101562 9.109375 -0.78125 C 8.660156 -0.457031 8.125 -0.203125 7.5 -0.015625 C 6.875 0.160156 6.179688 0.25 5.421875 0.25 Z M 5.421875 -1.546875 C 5.929688 -1.546875 6.375 -1.625 6.75 -1.78125 C 7.125 -1.945312 7.414062 -2.175781 7.625 -2.46875 C 7.84375 -2.757812 7.953125 -3.09375 7.953125 -3.46875 C 7.953125 -3.863281 7.84375 -4.203125 7.625 -4.484375 C 7.414062 -4.773438 7.125 -5 6.75 -5.15625 C 6.375 -5.3125 5.929688 -5.390625 5.421875 -5.390625 C 4.910156 -5.390625 4.460938 -5.3125 4.078125 -5.15625 C 3.703125 -5 3.40625 -4.773438 3.1875 -4.484375 C 2.976562 -4.203125 2.875 -3.863281 2.875 -3.46875 C 2.875 -3.09375 2.976562 -2.757812 3.1875 -2.46875 C 3.40625 -2.175781 3.703125 -1.945312 4.078125 -1.78125 C 4.460938 -1.625 4.910156 -1.546875 5.421875 -1.546875 Z M 5.421875 -1.546875 "/></g></g></g><g fill="#ffffff" fill-opacity="1"><g transform="translate(174.725795, 212.933558)"><g><path d="M 0.484375 0 L 0.484375 -6.953125 L 3.046875 -6.953125 L 3.046875 -1.875 L 7.28125 -1.875 L 7.28125 0 Z M 0.484375 0 "/></g></g></g><g fill="#ffffff" fill-opacity="1"><g transform="translate(182.039681, 212.933558)"><g><path d="M 3.4375 0 L 0 -6.953125 L 2.65625 -6.953125 L 4.875 -2.140625 L 7.109375 -6.953125 L 9.75 -6.953125 L 6.3125 0 Z M 3.4375 0 "/></g></g></g><g fill="#ffffff" fill-opacity="1"><g transform="translate(191.652512, 212.933558)"><g><path d="M 0.484375 0 L 0.484375 -6.953125 L 7.828125 -6.953125 L 7.828125 -5.375 L 2.96875 -5.375 L 2.96875 -4.21875 L 7.4375 -4.21875 L 7.4375 -2.859375 L 2.96875 -2.859375 L 2.96875 -1.578125 L 7.921875 -1.578125 L 7.921875 0 Z M 0.484375 0 "/></g></g></g><g fill="#ffffff" fill-opacity="1"><g transform="translate(199.635711, 212.933558)"><g><path d="M 0.484375 0 L 0.484375 -6.953125 L 5.4375 -6.953125 C 6.789062 -6.953125 7.828125 -6.648438 8.546875 -6.046875 C 9.273438 -5.453125 9.640625 -4.59375 9.640625 -3.46875 C 9.640625 -2.363281 9.273438 -1.507812 8.546875 -0.90625 C 7.828125 -0.300781 6.789062 0 5.4375 0 Z M 2.96875 -1.734375 L 5.0625 -1.734375 C 5.738281 -1.734375 6.253906 -1.882812 6.609375 -2.1875 C 6.972656 -2.488281 7.15625 -2.914062 7.15625 -3.46875 C 7.15625 -4.03125 6.972656 -4.460938 6.609375 -4.765625 C 6.253906 -5.078125 5.738281 -5.234375 5.0625 -5.234375 L 2.96875 -5.234375 Z M 2.96875 -1.734375 "/></g></g></g><g fill="#ffffff" fill-opacity="1"><g transform="translate(209.452248, 212.933558)"><g><path d="M 5.421875 0.25 C 4.648438 0.25 3.953125 0.160156 3.328125 -0.015625 C 2.703125 -0.203125 2.160156 -0.457031 1.703125 -0.78125 C 1.253906 -1.101562 0.910156 -1.492188 0.671875 -1.953125 C 0.429688 -2.410156 0.3125 -2.914062 0.3125 -3.46875 C 0.3125 -4.21875 0.519531 -4.867188 0.9375 -5.421875 C 1.363281 -5.984375 1.957031 -6.414062 2.71875 -6.71875 C 3.488281 -7.03125 4.390625 -7.1875 5.421875 -7.1875 C 6.441406 -7.1875 7.332031 -7.03125 8.09375 -6.71875 C 8.863281 -6.414062 9.457031 -5.984375 9.875 -5.421875 C 10.300781 -4.867188 10.515625 -4.21875 10.515625 -3.46875 C 10.515625 -2.914062 10.394531 -2.410156 10.15625 -1.953125 C 9.914062 -1.492188 9.566406 -1.101562 9.109375 -0.78125 C 8.660156 -0.457031 8.125 -0.203125 7.5 -0.015625 C 6.875 0.160156 6.179688 0.25 5.421875 0.25 Z M 5.421875 -1.546875 C 5.929688 -1.546875 6.375 -1.625 6.75 -1.78125 C 7.125 -1.945312 7.414062 -2.175781 7.625 -2.46875 C 7.84375 -2.757812 7.953125 -3.09375 7.953125 -3.46875 C 7.953125 -3.863281 7.84375 -4.203125 7.625 -4.484375 C 7.414062 -4.773438 7.125 -5 6.75 -5.15625 C 6.375 -5.3125 5.929688 -5.390625 5.421875 -5.390625 C 4.910156 -5.390625 4.460938 -5.3125 4.078125 -5.15625 C 3.703125 -5 3.40625 -4.773438 3.1875 -4.484375 C 2.976562 -4.203125 2.875 -3.863281 2.875 -3.46875 C 2.875 -3.09375 2.976562 -2.757812 3.1875 -2.46875 C 3.40625 -2.175781 3.703125 -1.945312 4.078125 -1.78125 C 4.460938 -1.625 4.910156 -1.546875 5.421875 -1.546875 Z M 5.421875 -1.546875 "/></g></g></g><g fill="#ffffff" fill-opacity="1"><g transform="translate(220.141799, 212.933558)"><g><path d="M 8.09375 0.1875 C 7.738281 0.1875 7.4375 0.125 7.1875 0 C 6.9375 -0.113281 6.722656 -0.257812 6.546875 -0.4375 C 6.367188 -0.625 6.210938 -0.816406 6.078125 -1.015625 L 5.671875 -1.671875 C 5.535156 -1.878906 5.363281 -2.035156 5.15625 -2.140625 C 4.957031 -2.242188 4.734375 -2.296875 4.484375 -2.296875 L 3.046875 -2.296875 L 3.046875 0 L 0.484375 0 L 0.484375 -6.953125 L 6.34375 -6.953125 C 7.28125 -6.953125 8.003906 -6.757812 8.515625 -6.375 C 9.023438 -5.988281 9.28125 -5.445312 9.28125 -4.75 C 9.28125 -4.21875 9.101562 -3.773438 8.75 -3.421875 C 8.394531 -3.078125 7.898438 -2.847656 7.265625 -2.734375 L 7.265625 -2.71875 C 7.378906 -2.675781 7.488281 -2.609375 7.59375 -2.515625 C 7.695312 -2.421875 7.789062 -2.3125 7.875 -2.1875 L 8.359375 -1.46875 C 8.429688 -1.375 8.507812 -1.300781 8.59375 -1.25 C 8.6875 -1.195312 8.804688 -1.171875 8.953125 -1.171875 C 9.035156 -1.171875 9.125 -1.1875 9.21875 -1.21875 C 9.320312 -1.257812 9.398438 -1.3125 9.453125 -1.375 L 9.875 -0.34375 C 9.75 -0.238281 9.582031 -0.144531 9.375 -0.0625 C 9.175781 0.0195312 8.960938 0.0820312 8.734375 0.125 C 8.515625 0.164062 8.300781 0.1875 8.09375 0.1875 Z M 3.046875 -3.71875 L 5.5625 -3.71875 C 5.925781 -3.71875 6.207031 -3.796875 6.40625 -3.953125 C 6.613281 -4.109375 6.71875 -4.320312 6.71875 -4.59375 C 6.71875 -4.851562 6.613281 -5.054688 6.40625 -5.203125 C 6.207031 -5.359375 5.925781 -5.4375 5.5625 -5.4375 L 3.046875 -5.4375 Z M 3.046875 -3.71875 "/></g></g></g><g fill="#ffffff" fill-opacity="1"><g transform="translate(229.871038, 212.933558)"><g/></g></g><g fill="#ffffff" fill-opacity="1"><g transform="translate(232.00502, 212.933558)"><g><path d="M 3.015625 0 L -0.015625 -6.953125 L 2.59375 -6.953125 L 4.5625 -1.96875 L 4.578125 -1.96875 L 6.5625 -6.953125 L 9.375 -6.953125 L 11.375 -1.96875 L 11.390625 -1.96875 L 13.34375 -6.953125 L 15.9375 -6.953125 L 12.921875 0 L 10.046875 0 L 7.984375 -4.984375 L 7.96875 -4.984375 L 5.875 0 Z M 3.015625 0 "/></g></g></g><g fill="#ffffff" fill-opacity="1"><g transform="translate(247.796875, 212.933558)"><g><path d="M 0.484375 0 L 0.484375 -6.953125 L 7.828125 -6.953125 L 7.828125 -5.375 L 2.96875 -5.375 L 2.96875 -4.21875 L 7.4375 -4.21875 L 7.4375 -2.859375 L 2.96875 -2.859375 L 2.96875 -1.578125 L 7.921875 -1.578125 L 7.921875 0 Z M 0.484375 0 "/></g></g></g><g fill="#ffffff" fill-opacity="1"><g transform="translate(255.780074, 212.933558)"><g><path d="M 0.484375 0 L 0.484375 -6.953125 L 6.390625 -6.953125 C 7.234375 -6.953125 7.890625 -6.785156 8.359375 -6.453125 C 8.828125 -6.117188 9.0625 -5.648438 9.0625 -5.046875 C 9.0625 -4.691406 8.960938 -4.382812 8.765625 -4.125 C 8.566406 -3.863281 8.285156 -3.671875 7.921875 -3.546875 L 7.921875 -3.53125 C 8.335938 -3.414062 8.660156 -3.210938 8.890625 -2.921875 C 9.128906 -2.640625 9.25 -2.300781 9.25 -1.90625 C 9.25 -1.3125 9.015625 -0.84375 8.546875 -0.5 C 8.085938 -0.164062 7.4375 0 6.59375 0 Z M 3.046875 -4.140625 L 5.53125 -4.140625 C 5.832031 -4.140625 6.066406 -4.203125 6.234375 -4.328125 C 6.410156 -4.453125 6.5 -4.628906 6.5 -4.859375 C 6.5 -5.078125 6.410156 -5.25 6.234375 -5.375 C 6.066406 -5.5 5.832031 -5.5625 5.53125 -5.5625 L 3.046875 -5.5625 Z M 3.03125 -1.390625 L 5.671875 -1.390625 C 5.992188 -1.390625 6.242188 -1.453125 6.421875 -1.578125 C 6.597656 -1.710938 6.6875 -1.898438 6.6875 -2.140625 C 6.6875 -2.378906 6.597656 -2.566406 6.421875 -2.703125 C 6.242188 -2.835938 5.992188 -2.90625 5.671875 -2.90625 L 3.03125 -2.90625 Z M 3.03125 -1.390625 "/></g></g></g></svg>